<svg width="393" height="74" viewBox="0 0 393 74" fill="none" xmlns="http://www.w3.org/2000/svg">
<rect x="-8" y="23" width="409" height="14" rx="7" fill="#F3F3E0"/>
<path d="M32.7031 28.2812C30.9844 29.8542 28.7865 30.6406 26.1094 30.6406C22.7969 30.6406 20.1927 29.5781 18.2969 27.4531C16.401 25.3177 15.4531 22.3906 15.4531 18.6719C15.4531 14.651 16.5312 11.5521 18.6875 9.375C20.5625 7.47917 22.9479 6.53125 25.8438 6.53125C29.7188 6.53125 32.5521 7.80208 34.3438 10.3438C35.3333 11.7708 35.8646 13.2031 35.9375 14.6406H31.125C30.8125 13.5365 30.4115 12.7031 29.9219 12.1406C29.0469 11.1406 27.75 10.6406 26.0312 10.6406C24.2812 10.6406 22.901 11.349 21.8906 12.7656C20.8802 14.1719 20.375 16.1667 20.375 18.75C20.375 21.3333 20.9062 23.2708 21.9688 24.5625C23.0417 25.8438 24.401 26.4844 26.0469 26.4844C27.7344 26.4844 29.0208 25.9323 29.9062 24.8281C30.3958 24.2344 30.8021 23.3438 31.125 22.1562H35.8906C35.474 24.6667 34.4115 26.7083 32.7031 28.2812ZM53.4219 15.125C54.8594 16.9271 55.5781 19.0573 55.5781 21.5156C55.5781 24.0156 54.8594 26.1562 53.4219 27.9375C51.9844 29.7083 49.8021 30.5938 46.875 30.5938C43.9479 30.5938 41.7656 29.7083 40.3281 27.9375C38.8906 26.1562 38.1719 24.0156 38.1719 21.5156C38.1719 19.0573 38.8906 16.9271 40.3281 15.125C41.7656 13.3229 43.9479 12.4219 46.875 12.4219C49.8021 12.4219 51.9844 13.3229 53.4219 15.125ZM46.8594 16.1875C45.5573 16.1875 44.5521 16.651 43.8438 17.5781C43.1458 18.4948 42.7969 19.8073 42.7969 21.5156C42.7969 23.224 43.1458 24.5417 43.8438 25.4688C44.5521 26.3958 45.5573 26.8594 46.8594 26.8594C48.1615 26.8594 49.1615 26.3958 49.8594 25.4688C50.5573 24.5417 50.9062 23.224 50.9062 21.5156C50.9062 19.8073 50.5573 18.4948 49.8594 17.5781C49.1615 16.651 48.1615 16.1875 46.8594 16.1875ZM68.3438 17.6562C67.9688 16.8333 67.2344 16.4219 66.1406 16.4219C64.8698 16.4219 64.0156 16.8333 63.5781 17.6562C63.3385 18.125 63.2188 18.8229 63.2188 19.75V30H58.7031V13H63.0312V15.4844C63.5833 14.599 64.1042 13.9688 64.5938 13.5938C65.4583 12.9271 66.5781 12.5938 67.9531 12.5938C69.2552 12.5938 70.3073 12.8802 71.1094 13.4531C71.7552 13.9844 72.2448 14.6667 72.5781 15.5C73.1615 14.5 73.8854 13.7656 74.75 13.2969C75.6667 12.8281 76.6875 12.5938 77.8125 12.5938C78.5625 12.5938 79.3021 12.7396 80.0312 13.0312C80.7604 13.3229 81.4219 13.8333 82.0156 14.5625C82.4948 15.1562 82.8177 15.8854 82.9844 16.75C83.0885 17.3229 83.1406 18.1615 83.1406 19.2656L83.1094 30H78.5469V19.1562C78.5469 18.5104 78.4427 17.9792 78.2344 17.5625C77.8385 16.7708 77.1094 16.375 76.0469 16.375C74.8177 16.375 73.9688 16.8854 73.5 17.9062C73.2604 18.4479 73.1406 19.099 73.1406 19.8594V30H68.6562V19.8594C68.6562 18.849 68.5521 18.1146 68.3438 17.6562ZM95.2344 6.82812V10.4531C94.9844 10.4219 94.5625 10.401 93.9688 10.3906C93.3854 10.3698 92.9792 10.5 92.75 10.7812C92.5312 11.0521 92.4219 11.3542 92.4219 11.6875V13.125H95.3438V16.2656H92.4219V30H87.9844V16.2656H85.5V13.125H87.9375V12.0312C87.9375 10.2083 88.2448 8.95312 88.8594 8.26562C89.5052 7.24479 91.0625 6.73438 93.5312 6.73438C93.8125 6.73438 94.0677 6.74479 94.2969 6.76562C94.526 6.77604 94.8385 6.79688 95.2344 6.82812ZM112.109 15.125C113.547 16.9271 114.266 19.0573 114.266 21.5156C114.266 24.0156 113.547 26.1562 112.109 27.9375C110.672 29.7083 108.49 30.5938 105.562 30.5938C102.635 30.5938 100.453 29.7083 99.0156 27.9375C97.5781 26.1562 96.8594 24.0156 96.8594 21.5156C96.8594 19.0573 97.5781 16.9271 99.0156 15.125C100.453 13.3229 102.635 12.4219 105.562 12.4219C108.49 12.4219 110.672 13.3229 112.109 15.125ZM105.547 16.1875C104.245 16.1875 103.24 16.651 102.531 17.5781C101.833 18.4948 101.484 19.8073 101.484 21.5156C101.484 23.224 101.833 24.5417 102.531 25.4688C103.24 26.3958 104.245 26.8594 105.547 26.8594C106.849 26.8594 107.849 26.3958 108.547 25.4688C109.245 24.5417 109.594 23.224 109.594 21.5156C109.594 19.8073 109.245 18.4948 108.547 17.5781C107.849 16.651 106.849 16.1875 105.547 16.1875ZM126.031 17.0781C124.24 17.0781 123.036 17.6615 122.422 18.8281C122.078 19.4844 121.906 20.4948 121.906 21.8594V30H117.422V12.9688H121.672V15.9375C122.359 14.8021 122.958 14.026 123.469 13.6094C124.302 12.9115 125.385 12.5625 126.719 12.5625C126.802 12.5625 126.87 12.5677 126.922 12.5781C126.984 12.5781 127.115 12.5833 127.312 12.5938V17.1562C127.031 17.125 126.781 17.1042 126.562 17.0938C126.344 17.0833 126.167 17.0781 126.031 17.0781ZM137.734 26.8281V30.1562L135.625 30.2344C133.521 30.3073 132.083 29.9427 131.312 29.1406C130.812 28.6302 130.562 27.8438 130.562 26.7812V16.2969H128.188V13.125H130.562V8.375H134.969V13.125H137.734V16.2969H134.969V25.2969C134.969 25.9948 135.057 26.4323 135.234 26.6094C135.411 26.776 135.953 26.8594 136.859 26.8594C136.995 26.8594 137.135 26.8594 137.281 26.8594C137.438 26.849 137.589 26.8385 137.734 26.8281ZM141.234 14.8125C142.411 13.3125 144.432 12.5625 147.297 12.5625C149.161 12.5625 150.818 12.9323 152.266 13.6719C153.714 14.4115 154.438 15.8073 154.438 17.8594V25.6719C154.438 26.2135 154.448 26.8698 154.469 27.6406C154.5 28.224 154.589 28.6198 154.734 28.8281C154.88 29.0365 155.099 29.2083 155.391 29.3438V30H150.547C150.411 29.6562 150.318 29.3333 150.266 29.0312C150.214 28.7292 150.172 28.3854 150.141 28C149.526 28.6667 148.818 29.2344 148.016 29.7031C147.057 30.2552 145.974 30.5312 144.766 30.5312C143.224 30.5312 141.948 30.0938 140.938 29.2188C139.938 28.3333 139.438 27.0833 139.438 25.4688C139.438 23.375 140.245 21.8594 141.859 20.9219C142.745 20.4115 144.047 20.0469 145.766 19.8281L147.281 19.6406C148.104 19.5365 148.693 19.4062 149.047 19.25C149.682 18.9792 150 18.5573 150 17.9844C150 17.2865 149.755 16.8073 149.266 16.5469C148.786 16.276 148.078 16.1406 147.141 16.1406C146.089 16.1406 145.344 16.401 144.906 16.9219C144.594 17.3073 144.385 17.8281 144.281 18.4844H139.984C140.078 16.9948 140.495 15.7708 141.234 14.8125ZM144.547 26.7812C144.964 27.125 145.474 27.2969 146.078 27.2969C147.036 27.2969 147.917 27.0156 148.719 26.4531C149.531 25.8906 149.953 24.8646 149.984 23.375V21.7188C149.703 21.8958 149.417 22.0417 149.125 22.1562C148.844 22.2604 148.453 22.3594 147.953 22.4531L146.953 22.6406C146.016 22.8073 145.344 23.0104 144.938 23.25C144.25 23.6562 143.906 24.2865 143.906 25.1406C143.906 25.901 144.12 26.4479 144.547 26.7812ZM167.656 30.4531C166.25 30.4531 165.12 30.1719 164.266 29.6094C163.755 29.276 163.203 28.6927 162.609 27.8594V30H158.25V7H162.688V15.1875C163.25 14.3958 163.87 13.7917 164.547 13.375C165.349 12.8542 166.37 12.5938 167.609 12.5938C169.849 12.5938 171.599 13.401 172.859 15.0156C174.13 16.6302 174.766 18.7135 174.766 21.2656C174.766 23.9115 174.141 26.1042 172.891 27.8438C171.641 29.5833 169.896 30.4531 167.656 30.4531ZM170.094 21.7344C170.094 20.526 169.938 19.526 169.625 18.7344C169.031 17.2344 167.938 16.4844 166.344 16.4844C164.729 16.4844 163.62 17.2188 163.016 18.6875C162.703 19.4688 162.547 20.4792 162.547 21.7188C162.547 23.1771 162.87 24.3854 163.516 25.3438C164.161 26.3021 165.146 26.7812 166.469 26.7812C167.615 26.7812 168.505 26.3177 169.141 25.3906C169.776 24.4635 170.094 23.2448 170.094 21.7344ZM178.062 6.96875H182.516V30H178.062V6.96875ZM193.797 25.5312L197.312 12.9688H202.047L196.203 29.7188C195.078 32.9479 194.188 34.9479 193.531 35.7188C192.875 36.5 191.562 36.8906 189.594 36.8906C189.198 36.8906 188.88 36.8854 188.641 36.875C188.401 36.875 188.042 36.8594 187.562 36.8281V33.2656L188.125 33.2969C188.562 33.3177 188.979 33.3021 189.375 33.25C189.771 33.1979 190.104 33.0781 190.375 32.8906C190.635 32.7135 190.875 32.3438 191.094 31.7812C191.323 31.2188 191.417 30.875 191.375 30.75L185.125 12.9688H190.078L193.797 25.5312ZM230.203 28.2812C228.484 29.8542 226.286 30.6406 223.609 30.6406C220.297 30.6406 217.693 29.5781 215.797 27.4531C213.901 25.3177 212.953 22.3906 212.953 18.6719C212.953 14.651 214.031 11.5521 216.188 9.375C218.062 7.47917 220.448 6.53125 223.344 6.53125C227.219 6.53125 230.052 7.80208 231.844 10.3438C232.833 11.7708 233.365 13.2031 233.438 14.6406H228.625C228.312 13.5365 227.911 12.7031 227.422 12.1406C226.547 11.1406 225.25 10.6406 223.531 10.6406C221.781 10.6406 220.401 11.349 219.391 12.7656C218.38 14.1719 217.875 16.1667 217.875 18.75C217.875 21.3333 218.406 23.2708 219.469 24.5625C220.542 25.8438 221.901 26.4844 223.547 26.4844C225.234 26.4844 226.521 25.9323 227.406 24.8281C227.896 24.2344 228.302 23.3438 228.625 22.1562H233.391C232.974 24.6667 231.911 26.7083 230.203 28.2812ZM250.922 15.125C252.359 16.9271 253.078 19.0573 253.078 21.5156C253.078 24.0156 252.359 26.1562 250.922 27.9375C249.484 29.7083 247.302 30.5938 244.375 30.5938C241.448 30.5938 239.266 29.7083 237.828 27.9375C236.391 26.1562 235.672 24.0156 235.672 21.5156C235.672 19.0573 236.391 16.9271 237.828 15.125C239.266 13.3229 241.448 12.4219 244.375 12.4219C247.302 12.4219 249.484 13.3229 250.922 15.125ZM244.359 16.1875C243.057 16.1875 242.052 16.651 241.344 17.5781C240.646 18.4948 240.297 19.8073 240.297 21.5156C240.297 23.224 240.646 24.5417 241.344 25.4688C242.052 26.3958 243.057 26.8594 244.359 26.8594C245.661 26.8594 246.661 26.3958 247.359 25.4688C248.057 24.5417 248.406 23.224 248.406 21.5156C248.406 19.8073 248.057 18.4948 247.359 17.5781C246.661 16.651 245.661 16.1875 244.359 16.1875ZM264.297 16.2656C262.786 16.2656 261.75 16.9062 261.188 18.1875C260.896 18.8646 260.75 19.7292 260.75 20.7812V30H256.312V13H260.609V15.4844C261.182 14.6094 261.724 13.9792 262.234 13.5938C263.151 12.9062 264.312 12.5625 265.719 12.5625C267.479 12.5625 268.917 13.026 270.031 13.9531C271.156 14.8698 271.719 16.3958 271.719 18.5312V30H267.156V19.6406C267.156 18.7448 267.036 18.0573 266.797 17.5781C266.359 16.7031 265.526 16.2656 264.297 16.2656ZM283.859 16.2656C282.349 16.2656 281.312 16.9062 280.75 18.1875C280.458 18.8646 280.312 19.7292 280.312 20.7812V30H275.875V13H280.172V15.4844C280.745 14.6094 281.286 13.9792 281.797 13.5938C282.714 12.9062 283.875 12.5625 285.281 12.5625C287.042 12.5625 288.479 13.026 289.594 13.9531C290.719 14.8698 291.281 16.3958 291.281 18.5312V30H286.719V19.6406C286.719 18.7448 286.599 18.0573 286.359 17.5781C285.922 16.7031 285.089 16.2656 283.859 16.2656ZM309.984 25C309.87 26.0104 309.344 27.0365 308.406 28.0781C306.948 29.7344 304.906 30.5625 302.281 30.5625C300.115 30.5625 298.203 29.8646 296.547 28.4688C294.891 27.0729 294.062 24.8021 294.062 21.6562C294.062 18.7083 294.807 16.4479 296.297 14.875C297.797 13.3021 299.74 12.5156 302.125 12.5156C303.542 12.5156 304.818 12.7812 305.953 13.3125C307.089 13.8438 308.026 14.6823 308.766 15.8281C309.432 16.8385 309.865 18.0104 310.062 19.3438C310.177 20.125 310.224 21.25 310.203 22.7188H298.547C298.609 24.4271 299.146 25.625 300.156 26.3125C300.771 26.7396 301.51 26.9531 302.375 26.9531C303.292 26.9531 304.036 26.6927 304.609 26.1719C304.922 25.8906 305.198 25.5 305.438 25H309.984ZM305.578 19.7812C305.505 18.6042 305.146 17.7135 304.5 17.1094C303.865 16.4948 303.073 16.1875 302.125 16.1875C301.094 16.1875 300.292 16.5104 299.719 17.1562C299.156 17.8021 298.802 18.6771 298.656 19.7812H305.578ZM327.953 19.0781H323.391C323.307 18.4427 323.094 17.8698 322.75 17.3594C322.25 16.6719 321.474 16.3281 320.422 16.3281C318.922 16.3281 317.896 17.0729 317.344 18.5625C317.052 19.3542 316.906 20.4062 316.906 21.7188C316.906 22.9688 317.052 23.974 317.344 24.7344C317.875 26.151 318.875 26.8594 320.344 26.8594C321.385 26.8594 322.125 26.5781 322.562 26.0156C323 25.4531 323.266 24.724 323.359 23.8281H327.906C327.802 25.1823 327.312 26.4635 326.438 27.6719C325.042 29.6198 322.974 30.5938 320.234 30.5938C317.495 30.5938 315.479 29.7812 314.188 28.1562C312.896 26.5312 312.25 24.4219 312.25 21.8281C312.25 18.901 312.964 16.625 314.391 15C315.818 13.375 317.786 12.5625 320.297 12.5625C322.432 12.5625 324.177 13.0417 325.531 14C326.896 14.9583 327.703 16.651 327.953 19.0781ZM338.828 26.8281V30.1562L336.719 30.2344C334.615 30.3073 333.177 29.9427 332.406 29.1406C331.906 28.6302 331.656 27.8438 331.656 26.7812V16.2969H329.281V13.125H331.656V8.375H336.062V13.125H338.828V16.2969H336.062V25.2969C336.062 25.9948 336.151 26.4323 336.328 26.6094C336.505 26.776 337.047 26.8594 337.953 26.8594C338.089 26.8594 338.229 26.8594 338.375 26.8594C338.531 26.849 338.682 26.8385 338.828 26.8281ZM356.266 25C356.151 26.0104 355.625 27.0365 354.688 28.0781C353.229 29.7344 351.188 30.5625 348.562 30.5625C346.396 30.5625 344.484 29.8646 342.828 28.4688C341.172 27.0729 340.344 24.8021 340.344 21.6562C340.344 18.7083 341.089 16.4479 342.578 14.875C344.078 13.3021 346.021 12.5156 348.406 12.5156C349.823 12.5156 351.099 12.7812 352.234 13.3125C353.37 13.8438 354.307 14.6823 355.047 15.8281C355.714 16.8385 356.146 18.0104 356.344 19.3438C356.458 20.125 356.505 21.25 356.484 22.7188H344.828C344.891 24.4271 345.427 25.625 346.438 26.3125C347.052 26.7396 347.792 26.9531 348.656 26.9531C349.573 26.9531 350.318 26.6927 350.891 26.1719C351.203 25.8906 351.479 25.5 351.719 25H356.266ZM351.859 19.7812C351.786 18.6042 351.427 17.7135 350.781 17.1094C350.146 16.4948 349.354 16.1875 348.406 16.1875C347.375 16.1875 346.573 16.5104 346 17.1562C345.438 17.8021 345.083 18.6771 344.938 19.7812H351.859ZM375 7V30H370.672V27.6406C370.036 28.651 369.312 29.3854 368.5 29.8438C367.688 30.3021 366.677 30.5312 365.469 30.5312C363.479 30.5312 361.802 29.7292 360.438 28.125C359.083 26.5104 358.406 24.4427 358.406 21.9219C358.406 19.0156 359.073 16.7292 360.406 15.0625C361.75 13.3958 363.542 12.5625 365.781 12.5625C366.812 12.5625 367.729 12.7917 368.531 13.25C369.333 13.6979 369.984 14.3229 370.484 15.125V7H375ZM363 21.5938C363 23.1667 363.312 24.4219 363.938 25.3594C364.552 26.3073 365.49 26.7812 366.75 26.7812C368.01 26.7812 368.969 26.3125 369.625 25.375C370.281 24.4375 370.609 23.224 370.609 21.7344C370.609 19.651 370.083 18.1615 369.031 17.2656C368.385 16.724 367.635 16.4531 366.781 16.4531C365.479 16.4531 364.521 16.9479 363.906 17.9375C363.302 18.9167 363 20.1354 363 21.5938ZM127.422 50.75C128.755 51.6042 129.521 53.0729 129.719 55.1562H125.266C125.203 54.5833 125.042 54.1302 124.781 53.7969C124.292 53.1927 123.458 52.8906 122.281 52.8906C121.312 52.8906 120.62 53.0417 120.203 53.3438C119.797 53.6458 119.594 54 119.594 54.4062C119.594 54.9167 119.812 55.2865 120.25 55.5156C120.688 55.7552 122.234 56.1667 124.891 56.75C126.661 57.1667 127.99 57.7969 128.875 58.6406C129.75 59.4948 130.188 60.5625 130.188 61.8438C130.188 63.5312 129.557 64.9115 128.297 65.9844C127.047 67.0469 125.109 67.5781 122.484 67.5781C119.807 67.5781 117.828 67.0156 116.547 65.8906C115.276 64.7552 114.641 63.3125 114.641 61.5625H119.156C119.25 62.3542 119.453 62.9167 119.766 63.25C120.318 63.8438 121.339 64.1406 122.828 64.1406C123.703 64.1406 124.396 64.0104 124.906 63.75C125.427 63.4896 125.688 63.099 125.688 62.5781C125.688 62.0781 125.479 61.6979 125.062 61.4375C124.646 61.1771 123.099 60.7292 120.422 60.0938C118.495 59.6146 117.135 59.0156 116.344 58.2969C115.552 57.5885 115.156 56.5677 115.156 55.2344C115.156 53.6615 115.771 52.3125 117 51.1875C118.24 50.0521 119.979 49.4844 122.219 49.4844C124.344 49.4844 126.078 49.9062 127.422 50.75ZM141.297 63.8281V67.1562L139.188 67.2344C137.083 67.3073 135.646 66.9427 134.875 66.1406C134.375 65.6302 134.125 64.8438 134.125 63.7812V53.2969H131.75V50.125H134.125V45.375H138.531V50.125H141.297V53.2969H138.531V62.2969C138.531 62.9948 138.62 63.4323 138.797 63.6094C138.974 63.776 139.516 63.8594 140.422 63.8594C140.557 63.8594 140.698 63.8594 140.844 63.8594C141 63.849 141.151 63.8385 141.297 63.8281ZM144.797 51.8125C145.974 50.3125 147.995 49.5625 150.859 49.5625C152.724 49.5625 154.38 49.9323 155.828 50.6719C157.276 51.4115 158 52.8073 158 54.8594V62.6719C158 63.2135 158.01 63.8698 158.031 64.6406C158.062 65.224 158.151 65.6198 158.297 65.8281C158.443 66.0365 158.661 66.2083 158.953 66.3438V67H154.109C153.974 66.6562 153.88 66.3333 153.828 66.0312C153.776 65.7292 153.734 65.3854 153.703 65C153.089 65.6667 152.38 66.2344 151.578 66.7031C150.62 67.2552 149.536 67.5312 148.328 67.5312C146.786 67.5312 145.51 67.0938 144.5 66.2188C143.5 65.3333 143 64.0833 143 62.4688C143 60.375 143.807 58.8594 145.422 57.9219C146.307 57.4115 147.609 57.0469 149.328 56.8281L150.844 56.6406C151.667 56.5365 152.255 56.4062 152.609 56.25C153.245 55.9792 153.562 55.5573 153.562 54.9844C153.562 54.2865 153.318 53.8073 152.828 53.5469C152.349 53.276 151.641 53.1406 150.703 53.1406C149.651 53.1406 148.906 53.401 148.469 53.9219C148.156 54.3073 147.948 54.8281 147.844 55.4844H143.547C143.641 53.9948 144.057 52.7708 144.797 51.8125ZM148.109 63.7812C148.526 64.125 149.036 64.2969 149.641 64.2969C150.599 64.2969 151.479 64.0156 152.281 63.4531C153.094 62.8906 153.516 61.8646 153.547 60.375V58.7188C153.266 58.8958 152.979 59.0417 152.688 59.1562C152.406 59.2604 152.016 59.3594 151.516 59.4531L150.516 59.6406C149.578 59.8073 148.906 60.0104 148.5 60.25C147.812 60.6562 147.469 61.2865 147.469 62.1406C147.469 62.901 147.682 63.4479 148.109 63.7812ZM170.531 54.0781C168.74 54.0781 167.536 54.6615 166.922 55.8281C166.578 56.4844 166.406 57.4948 166.406 58.8594V67H161.922V49.9688H166.172V52.9375C166.859 51.8021 167.458 51.026 167.969 50.6094C168.802 49.9115 169.885 49.5625 171.219 49.5625C171.302 49.5625 171.37 49.5677 171.422 49.5781C171.484 49.5781 171.615 49.5833 171.812 49.5938V54.1562C171.531 54.125 171.281 54.1042 171.062 54.0938C170.844 54.0833 170.667 54.0781 170.531 54.0781ZM182.234 63.8281V67.1562L180.125 67.2344C178.021 67.3073 176.583 66.9427 175.812 66.1406C175.312 65.6302 175.062 64.8438 175.062 63.7812V53.2969H172.688V50.125H175.062V45.375H179.469V50.125H182.234V53.2969H179.469V62.2969C179.469 62.9948 179.557 63.4323 179.734 63.6094C179.911 63.776 180.453 63.8594 181.359 63.8594C181.495 63.8594 181.635 63.8594 181.781 63.8594C181.938 63.849 182.089 63.8385 182.234 63.8281ZM196.828 50.75C198.161 51.6042 198.927 53.0729 199.125 55.1562H194.672C194.609 54.5833 194.448 54.1302 194.188 53.7969C193.698 53.1927 192.865 52.8906 191.688 52.8906C190.719 52.8906 190.026 53.0417 189.609 53.3438C189.203 53.6458 189 54 189 54.4062C189 54.9167 189.219 55.2865 189.656 55.5156C190.094 55.7552 191.641 56.1667 194.297 56.75C196.068 57.1667 197.396 57.7969 198.281 58.6406C199.156 59.4948 199.594 60.5625 199.594 61.8438C199.594 63.5312 198.964 64.9115 197.703 65.9844C196.453 67.0469 194.516 67.5781 191.891 67.5781C189.214 67.5781 187.234 67.0156 185.953 65.8906C184.682 64.7552 184.047 63.3125 184.047 61.5625H188.562C188.656 62.3542 188.859 62.9167 189.172 63.25C189.724 63.8438 190.745 64.1406 192.234 64.1406C193.109 64.1406 193.802 64.0104 194.312 63.75C194.833 63.4896 195.094 63.099 195.094 62.5781C195.094 62.0781 194.885 61.6979 194.469 61.4375C194.052 61.1771 192.505 60.7292 189.828 60.0938C187.901 59.6146 186.542 59.0156 185.75 58.2969C184.958 57.5885 184.562 56.5677 184.562 55.2344C184.562 53.6615 185.177 52.3125 186.406 51.1875C187.646 50.0521 189.385 49.4844 191.625 49.4844C193.75 49.4844 195.484 49.9062 196.828 50.75ZM227.203 57V67H222.656V56.6406C222.656 55.724 222.5 54.9844 222.188 54.4219C221.781 53.6302 221.01 53.2344 219.875 53.2344C218.698 53.2344 217.802 53.6302 217.188 54.4219C216.583 55.2031 216.281 56.3229 216.281 57.7812V67H211.844V44.0469H216.281V52.1875C216.927 51.1979 217.672 50.5104 218.516 50.125C219.37 49.7292 220.266 49.5312 221.203 49.5312C222.255 49.5312 223.208 49.7135 224.062 50.0781C224.927 50.4427 225.635 51 226.188 51.75C226.656 52.3854 226.943 53.0417 227.047 53.7188C227.151 54.3854 227.203 55.4792 227.203 57ZM245.953 62C245.839 63.0104 245.312 64.0365 244.375 65.0781C242.917 66.7344 240.875 67.5625 238.25 67.5625C236.083 67.5625 234.172 66.8646 232.516 65.4688C230.859 64.0729 230.031 61.8021 230.031 58.6562C230.031 55.7083 230.776 53.4479 232.266 51.875C233.766 50.3021 235.708 49.5156 238.094 49.5156C239.51 49.5156 240.786 49.7812 241.922 50.3125C243.057 50.8438 243.995 51.6823 244.734 52.8281C245.401 53.8385 245.833 55.0104 246.031 56.3438C246.146 57.125 246.193 58.25 246.172 59.7188H234.516C234.578 61.4271 235.115 62.625 236.125 63.3125C236.74 63.7396 237.479 63.9531 238.344 63.9531C239.26 63.9531 240.005 63.6927 240.578 63.1719C240.891 62.8906 241.167 62.5 241.406 62H245.953ZM241.547 56.7812C241.474 55.6042 241.115 54.7135 240.469 54.1094C239.833 53.4948 239.042 53.1875 238.094 53.1875C237.062 53.1875 236.26 53.5104 235.688 54.1562C235.125 54.8021 234.771 55.6771 234.625 56.7812H241.547ZM257.75 54.0781C255.958 54.0781 254.755 54.6615 254.141 55.8281C253.797 56.4844 253.625 57.4948 253.625 58.8594V67H249.141V49.9688H253.391V52.9375C254.078 51.8021 254.677 51.026 255.188 50.6094C256.021 49.9115 257.104 49.5625 258.438 49.5625C258.521 49.5625 258.589 49.5677 258.641 49.5781C258.703 49.5781 258.833 49.5833 259.031 49.5938V54.1562C258.75 54.125 258.5 54.1042 258.281 54.0938C258.062 54.0833 257.885 54.0781 257.75 54.0781ZM276.234 62C276.12 63.0104 275.594 64.0365 274.656 65.0781C273.198 66.7344 271.156 67.5625 268.531 67.5625C266.365 67.5625 264.453 66.8646 262.797 65.4688C261.141 64.0729 260.312 61.8021 260.312 58.6562C260.312 55.7083 261.057 53.4479 262.547 51.875C264.047 50.3021 265.99 49.5156 268.375 49.5156C269.792 49.5156 271.068 49.7812 272.203 50.3125C273.339 50.8438 274.276 51.6823 275.016 52.8281C275.682 53.8385 276.115 55.0104 276.312 56.3438C276.427 57.125 276.474 58.25 276.453 59.7188H264.797C264.859 61.4271 265.396 62.625 266.406 63.3125C267.021 63.7396 267.76 63.9531 268.625 63.9531C269.542 63.9531 270.286 63.6927 270.859 63.1719C271.172 62.8906 271.448 62.5 271.688 62H276.234ZM271.828 56.7812C271.755 55.6042 271.396 54.7135 270.75 54.1094C270.115 53.4948 269.323 53.1875 268.375 53.1875C267.344 53.1875 266.542 53.5104 265.969 54.1562C265.406 54.8021 265.052 55.6771 264.906 56.7812H271.828Z" fill="#183B4E"/>
</svg>
