<svg fill="none" height="74" viewBox="0 0 393 74" width="393" xmlns="http://www.w3.org/2000/svg"><rect fill="#f3f3e0" height="14" rx="7" width="409" x="-8" y="23"/><path d="m32.7031 28.2812c-1.7187 1.573-3.9166 2.3594-6.5937 2.3594-3.3125 0-5.9167-1.0625-7.8125-3.1875-1.8959-2.1354-2.8438-5.0625-2.8438-8.7812 0-4.0209 1.0781-7.1198 3.2344-9.2969 1.875-1.89583 4.2604-2.84375 7.1563-2.84375 3.875 0 6.7083 1.27083 8.5 3.81255.9895 1.427 1.5208 2.8593 1.5937 4.2968h-4.8125c-.3125-1.1041-.7135-1.9375-1.2031-2.5-.875-1-2.1719-1.5-3.8907-1.5-1.75 0-3.1302.7084-4.1406 2.125-1.0104 1.4063-1.5156 3.4011-1.5156 5.9844s.5312 4.5208 1.5938 5.8125c1.0729 1.2813 2.4322 1.9219 4.0781 1.9219 1.6875 0 2.9739-.5521 3.8593-1.6563.4896-.5937.8959-1.4843 1.2188-2.6719h4.7656c-.4166 2.5105-1.4791 4.5521-3.1875 6.125zm20.7188-13.1562c1.4375 1.8021 2.1562 3.9323 2.1562 6.3906 0 2.5-.7187 4.6406-2.1562 6.4219-1.4375 1.7708-3.6198 2.6563-6.5469 2.6563s-5.1094-.8855-6.5469-2.6563c-1.4375-1.7813-2.1562-3.9219-2.1562-6.4219 0-2.4583.7187-4.5885 2.1562-6.3906s3.6198-2.7031 6.5469-2.7031 5.1094.901 6.5469 2.7031zm-6.5625 1.0625c-1.3021 0-2.3073.4635-3.0156 1.3906-.698.9167-1.0469 2.2292-1.0469 3.9375 0 1.7084.3489 3.0261 1.0469 3.9532.7083.927 1.7135 1.3906 3.0156 1.3906s2.3021-.4636 3-1.3906c.6979-.9271 1.0468-2.2448 1.0468-3.9532 0-1.7083-.3489-3.0208-1.0468-3.9375-.6979-.9271-1.6979-1.3906-3-1.3906zm21.4844 1.4687c-.375-.8229-1.1094-1.2343-2.2032-1.2343-1.2708 0-2.125.4114-2.5625 1.2343-.2396.4688-.3593 1.1667-.3593 2.0938v10.25h-4.5157v-17h4.3281v2.4844c.5521-.8854 1.073-1.5156 1.5626-1.8906.8645-.6667 1.9843-1 3.3593-1 1.3021 0 2.3542.2864 3.1563.8593.6458.5313 1.1354 1.2136 1.4687 2.0469.5834-1 1.3073-1.7344 2.1719-2.2031.9167-.4688 1.9375-.7031 3.0625-.7031.75 0 1.4896.1458 2.2187.4374.7292.2917 1.3907.8021 1.9844 1.5313.4792.5937.8021 1.3229.9688 2.1875.1041.5729.1562 1.4115.1562 2.5156l-.0312 10.7344h-4.5625v-10.8438c0-.6458-.1042-1.177-.3125-1.5937-.3959-.7917-1.125-1.1875-2.1875-1.1875-1.2292 0-2.0781.5104-2.5469 1.5312-.2396.5417-.3594 1.1928-.3594 1.9532v10.1406h-4.4844v-10.1406c0-1.0104-.1041-1.7448-.3124-2.2032zm26.8906-10.82808v3.62498c-.25-.0312-.6719-.0521-1.2656-.0625-.5834-.0208-.9896.1094-1.2188.3906-.2188.2709-.3281.573-.3281.9063v1.4375h2.9219v3.1406h-2.9219v13.7344h-4.4375v-13.7344h-2.4844v-3.1406h2.4375v-1.0938c0-1.8229.3073-3.07808.9219-3.76558.6458-1.02083 2.2031-1.53124 4.6718-1.53124.2813 0 .5365.01041.7657.03124.2291.01042.5416.03126.9375.0625zm16.8746 8.29688c1.438 1.8021 2.157 3.9323 2.157 6.3906 0 2.5-.719 4.6406-2.157 6.4219-1.437 1.7708-3.619 2.6563-6.547 2.6563-2.927 0-5.109-.8855-6.5464-2.6563-1.4375-1.7813-2.1562-3.9219-2.1562-6.4219 0-2.4583.7187-4.5885 2.1562-6.3906 1.4374-1.8021 3.6194-2.7031 6.5464-2.7031 2.928 0 5.11.901 6.547 2.7031zm-6.562 1.0625c-1.302 0-2.307.4635-3.016 1.3906-.698.9167-1.047 2.2292-1.047 3.9375 0 1.7084.349 3.0261 1.047 3.9532.709.927 1.714 1.3906 3.016 1.3906s2.302-.4636 3-1.3906c.698-.9271 1.047-2.2448 1.047-3.9532 0-1.7083-.349-3.0208-1.047-3.9375-.698-.9271-1.698-1.3906-3-1.3906zm20.484.8906c-1.791 0-2.995.5834-3.609 1.75-.344.6563-.516 1.6667-.516 3.0313v8.1406h-4.484v-17.0312h4.25v2.9687c.687-1.1354 1.286-1.9115 1.797-2.3281.833-.6979 1.916-1.0469 3.25-1.0469.083 0 .151.0052.203.0156.062 0 .193.0052.39.0157v4.5624c-.281-.0312-.531-.052-.75-.0624-.218-.0105-.395-.0157-.531-.0157zm11.703 9.75v3.3281l-2.109.0782c-2.104.0729-3.542-.2917-4.313-1.0938-.5-.5104-.75-1.2968-.75-2.3594v-10.4843h-2.374v-3.1719h2.374v-4.75h4.407v4.75h2.765v3.1719h-2.765v9c0 .6979.088 1.1354.265 1.3125.177.1666.719.25 1.625.25h.422c.157-.0104.308-.0209.453-.0313zm3.5-12.0156c1.177-1.5 3.198-2.25 6.063-2.25 1.864 0 3.521.3698 4.969 1.1094s2.172 2.1354 2.172 4.1875v7.8125c0 .5416.01 1.1979.031 1.9687.031.5834.12.9792.265 1.1875.146.2084.365.3802.657.5157v.6562h-4.844c-.136-.3438-.229-.6667-.281-.9688-.052-.302-.094-.6458-.125-1.0312-.615.6667-1.323 1.2344-2.125 1.7031-.959.5521-2.042.8281-3.25.8281-1.542 0-2.818-.4374-3.828-1.3124-1-.8855-1.5-2.1355-1.5-3.75 0-2.0938.807-3.6094 2.421-4.5469.886-.5104 2.188-.875 3.907-1.0938l1.515-.1875c.823-.1041 1.412-.2344 1.766-.3906.635-.2708.953-.6927.953-1.2656 0-.6979-.245-1.1771-.734-1.4375-.48-.2709-1.188-.4063-2.125-.4063-1.052 0-1.797.2604-2.235.7813-.312.3854-.521.9062-.625 1.5625h-4.297c.094-1.4896.511-2.7136 1.25-3.6719zm3.313 11.9687c.417.3438.927.5157 1.531.5157.958 0 1.839-.2813 2.641-.8438.812-.5625 1.234-1.5885 1.265-3.0781v-1.6562c-.281.177-.567.3229-.859.4374-.281.1042-.672.2032-1.172.2969l-1 .1875c-.937.1667-1.609.3698-2.015.6094-.688.4062-1.032 1.0365-1.032 1.8906 0 .7604.214 1.3073.641 1.6406zm23.109 3.6719c-1.406 0-2.536-.2812-3.39-.8437-.511-.3334-1.063-.9167-1.657-1.75v2.1406h-4.359v-23h4.438v8.1875c.562-.7917 1.182-1.3958 1.859-1.8125.802-.5208 1.823-.7812 3.062-.7812 2.24 0 3.99.8072 5.25 2.4218 1.271 1.6146 1.907 3.6979 1.907 6.25 0 2.6459-.625 4.8386-1.875 6.5782-1.25 1.7395-2.995 2.6093-5.235 2.6093zm2.438-8.7187c0-1.2084-.156-2.2084-.469-3-.594-1.5-1.687-2.25-3.281-2.25-1.615 0-2.724.7344-3.328 2.2031-.313.7813-.469 1.7917-.469 3.0313 0 1.4583.323 2.6666.969 3.625.645.9583 1.63 1.4374 2.953 1.4374 1.146 0 2.036-.4635 2.672-1.3906.635-.9271.953-2.1458.953-3.6562zm7.968-14.76565h4.454v23.03125h-4.454zm15.735 18.56245 3.515-12.5624h4.735l-5.844 16.75c-1.125 3.2291-2.015 5.2291-2.672 6-.656.7812-1.969 1.1718-3.937 1.1718-.396 0-.714-.0052-.953-.0156-.24 0-.599-.0156-1.079-.0469v-3.5625l.563.0313c.437.0208.854.0052 1.25-.0469s.729-.1719 1-.3594c.26-.1771.5-.5468.719-1.1094.229-.5624.323-.9062.281-1.0312l-6.25-17.7812h4.953zm36.406 2.75c-1.719 1.573-3.917 2.3594-6.594 2.3594-3.312 0-5.916-1.0625-7.812-3.1875-1.896-2.1354-2.844-5.0625-2.844-8.7812 0-4.0209 1.078-7.1198 3.235-9.2969 1.874-1.89583 4.26-2.84375 7.156-2.84375 3.875 0 6.708 1.27083 8.5 3.81255.989 1.427 1.521 2.8593 1.594 4.2968h-4.813c-.313-1.1041-.714-1.9375-1.203-2.5-.875-1-2.172-1.5-3.891-1.5-1.75 0-3.13.7084-4.14 2.125-1.011 1.4063-1.516 3.4011-1.516 5.9844s.531 4.5208 1.594 5.8125c1.073 1.2813 2.432 1.9219 4.078 1.9219 1.687 0 2.974-.5521 3.859-1.6563.49-.5937.896-1.4843 1.219-2.6719h4.766c-.417 2.5105-1.48 4.5521-3.188 6.125zm20.719-13.1562c1.437 1.8021 2.156 3.9323 2.156 6.3906 0 2.5-.719 4.6406-2.156 6.4219-1.438 1.7708-3.62 2.6563-6.547 2.6563s-5.109-.8855-6.547-2.6563c-1.437-1.7813-2.156-3.9219-2.156-6.4219 0-2.4583.719-4.5885 2.156-6.3906 1.438-1.8021 3.62-2.7031 6.547-2.7031s5.109.901 6.547 2.7031zm-6.563 1.0625c-1.302 0-2.307.4635-3.015 1.3906-.698.9167-1.047 2.2292-1.047 3.9375 0 1.7084.349 3.0261 1.047 3.9532.708.927 1.713 1.3906 3.015 1.3906s2.302-.4636 3-1.3906c.698-.9271 1.047-2.2448 1.047-3.9532 0-1.7083-.349-3.0208-1.047-3.9375-.698-.9271-1.698-1.3906-3-1.3906zm19.938.0781c-1.511 0-2.547.6406-3.109 1.9219-.292.6771-.438 1.5417-.438 2.5937v9.2188h-4.438v-17h4.297v2.4844c.573-.875 1.115-1.5052 1.625-1.8906.917-.6876 2.078-1.0313 3.485-1.0313 1.76 0 3.198.4635 4.312 1.3906 1.125.9167 1.688 2.4427 1.688 4.5781v11.4688h-4.563v-10.3594c0-.8958-.12-1.5833-.359-2.0625-.438-.875-1.271-1.3125-2.5-1.3125zm19.562 0c-1.51 0-2.547.6406-3.109 1.9219-.292.6771-.438 1.5417-.438 2.5937v9.2188h-4.437v-17h4.297v2.4844c.573-.875 1.114-1.5052 1.625-1.8906.917-.6876 2.078-1.0313 3.484-1.0313 1.761 0 3.198.4635 4.313 1.3906 1.125.9167 1.687 2.4427 1.687 4.5781v11.4688h-4.562v-10.3594c0-.8958-.12-1.5833-.36-2.0625-.437-.875-1.27-1.3125-2.5-1.3125zm26.125 8.7344c-.114 1.0104-.64 2.0365-1.578 3.0781-1.458 1.6563-3.5 2.4844-6.125 2.4844-2.166 0-4.078-.6979-5.734-2.0937-1.656-1.3959-2.485-3.6667-2.485-6.8126 0-2.9479.745-5.2083 2.235-6.7812 1.5-1.5729 3.443-2.3594 5.828-2.3594 1.417 0 2.693.2656 3.828.7969 1.136.5313 2.073 1.3698 2.813 2.5156.666 1.0104 1.099 2.1823 1.296 3.5157.115.7812.162 1.9062.141 3.375h-11.656c.062 1.7083.599 2.9062 1.609 3.5937.615.4271 1.354.6406 2.219.6406.917 0 1.661-.2604 2.234-.7812.313-.2813.589-.6719.829-1.1719zm-4.406-5.2188c-.073-1.177-.432-2.0677-1.078-2.6718-.635-.6146-1.427-.9219-2.375-.9219-1.031 0-1.833.3229-2.406.9687-.563.6459-.917 1.5209-1.063 2.625zm22.375-.7031h-4.562c-.084-.6354-.297-1.2083-.641-1.7187-.5-.6875-1.276-1.0313-2.328-1.0313-1.5 0-2.526.7448-3.078 2.2344-.292.7917-.438 1.8437-.438 3.1563 0 1.25.146 2.2552.438 3.0156.531 1.4166 1.531 2.125 3 2.125 1.041 0 1.781-.2813 2.218-.8438.438-.5625.704-1.2916.797-2.1875h4.547c-.104 1.3542-.594 2.6354-1.468 3.8438-1.396 1.9479-3.464 2.9219-6.204 2.9219-2.739 0-4.755-.8126-6.046-2.4376-1.292-1.625-1.938-3.7343-1.938-6.3281 0-2.9271.714-5.2031 2.141-6.8281s3.395-2.4375 5.906-2.4375c2.135 0 3.88.4792 5.234 1.4375 1.365.9583 2.172 2.651 2.422 5.0781zm10.875 7.75v3.3281l-2.109.0782c-2.104.0729-3.542-.2917-4.313-1.0938-.5-.5104-.75-1.2968-.75-2.3594v-10.4843h-2.375v-3.1719h2.375v-4.75h4.406v4.75h2.766v3.1719h-2.766v9c0 .6979.089 1.1354.266 1.3125.177.1666.719.25 1.625.25h.422c.156-.0104.307-.0209.453-.0313zm17.438-1.8281c-.115 1.0104-.641 2.0365-1.578 3.0781-1.459 1.6563-3.5 2.4844-6.126 2.4844-2.166 0-4.078-.6979-5.734-2.0937-1.656-1.3959-2.484-3.6667-2.484-6.8126 0-2.9479.745-5.2083 2.234-6.7812 1.5-1.5729 3.443-2.3594 5.828-2.3594 1.417 0 2.693.2656 3.828.7969 1.136.5313 2.073 1.3698 2.813 2.5156.667 1.0104 1.099 2.1823 1.297 3.5157.114.7812.161 1.9062.14 3.375h-11.656c.063 1.7083.599 2.9062 1.61 3.5937.614.4271 1.354.6406 2.218.6406.917 0 1.662-.2604 2.235-.7812.312-.2813.588-.6719.828-1.1719zm-4.407-5.2188c-.073-1.177-.432-2.0677-1.078-2.6718-.635-.6146-1.427-.9219-2.375-.9219-1.031 0-1.833.3229-2.406.9687-.562.6459-.917 1.5209-1.062 2.625zm23.141-12.7812v23h-4.328v-2.3594c-.636 1.0104-1.36 1.7448-2.172 2.2032-.812.4583-1.823.6874-3.031.6874-1.99 0-3.667-.802-5.031-2.4062-1.355-1.6146-2.032-3.6823-2.032-6.2031 0-2.9063.667-5.1927 2-6.8594 1.344-1.6667 3.136-2.5 5.375-2.5 1.031 0 1.948.2292 2.75.6875.802.4479 1.453 1.0729 1.953 1.875v-8.125zm-12 14.5938c0 1.5729.312 2.8281.938 3.7656.614.9479 1.552 1.4218 2.812 1.4218s2.219-.4687 2.875-1.4062.984-2.151.984-3.6406c0-2.0834-.526-3.5729-1.578-4.4688-.646-.5416-1.396-.8125-2.25-.8125-1.302 0-2.26.4948-2.875 1.4844-.604.9792-.906 2.1979-.906 3.6563zm-235.578 29.1562c1.333.8542 2.099 2.3229 2.297 4.4062h-4.453c-.063-.5729-.224-1.026-.485-1.3593-.489-.6042-1.323-.9063-2.5-.9063-.969 0-1.661.1511-2.078.4532-.406.302-.609.6562-.609 1.0624 0 .5105.218.8803.656 1.1094.438.2396 1.984.6511 4.641 1.2344 1.77.4167 3.099 1.0469 3.984 1.8906.875.8542 1.313 1.9219 1.313 3.2032 0 1.6874-.631 3.0677-1.891 4.1406-1.25 1.0625-3.188 1.5937-5.813 1.5937-2.677 0-4.656-.5625-5.937-1.6875-1.271-1.1354-1.906-2.5781-1.906-4.3281h4.515c.094.7917.297 1.3542.61 1.6875.552.5938 1.573.8906 3.062.8906.875 0 1.568-.1302 2.078-.3906.521-.2604.782-.651.782-1.1719 0-.5-.209-.8802-.626-1.1406-.416-.2604-1.963-.7083-4.64-1.3437-1.927-.4792-3.287-1.0782-4.078-1.7969-.792-.7084-1.188-1.7292-1.188-3.0625 0-1.5729.615-2.9219 1.844-4.0469 1.24-1.1354 2.979-1.7031 5.219-1.7031 2.125 0 3.859.4218 5.203 1.2656zm13.875 13.0781v3.3281l-2.109.0782c-2.105.0729-3.542-.2917-4.313-1.0938-.5-.5104-.75-1.2968-.75-2.3594v-10.4843h-2.375v-3.1719h2.375v-4.75h4.406v4.75h2.766v3.1719h-2.766v9c0 .6979.089 1.1354.266 1.3125.177.1666.719.25 1.625.25h.422c.156-.0104.307-.0209.453-.0313zm3.5-12.0156c1.177-1.5 3.198-2.25 6.062-2.25 1.865 0 3.521.3698 4.969 1.1094s2.172 2.1354 2.172 4.1875v7.8125c0 .5416.01 1.1979.031 1.9687.031.5834.12.9792.266 1.1875.146.2084.364.3802.656.5157v.6562h-4.844c-.135-.3438-.229-.6667-.281-.9688-.052-.302-.094-.6458-.125-1.0312-.614.6667-1.323 1.2344-2.125 1.7031-.958.5521-2.042.8281-3.25.8281-1.542 0-2.818-.4374-3.828-1.3124-1-.8855-1.5-2.1355-1.5-3.75 0-2.0938.807-3.6094 2.422-4.5469.885-.5104 2.187-.875 3.906-1.0938l1.516-.1875c.823-.1041 1.411-.2344 1.765-.3906.636-.2708.953-.6927.953-1.2656 0-.6979-.244-1.1771-.734-1.4375-.479-.2709-1.187-.4063-2.125-.4063-1.052 0-1.797.2604-2.234.7813-.313.3854-.521.9062-.625 1.5625h-4.297c.094-1.4896.51-2.7136 1.25-3.6719zm3.312 11.9687c.417.3438.927.5157 1.532.5157.958 0 1.838-.2813 2.64-.8438.813-.5625 1.235-1.5885 1.266-3.0781v-1.6562c-.281.177-.568.3229-.859.4374-.282.1042-.672.2032-1.172.2969l-1 .1875c-.938.1667-1.61.3698-2.016.6094-.688.4062-1.031 1.0365-1.031 1.8906 0 .7604.213 1.3073.64 1.6406zm22.422-9.7031c-1.791 0-2.995.5834-3.609 1.75-.344.6563-.516 1.6667-.516 3.0313v8.1406h-4.484v-17.0312h4.25v2.9687c.687-1.1354 1.286-1.9115 1.797-2.3281.833-.6979 1.916-1.0469 3.25-1.0469.083 0 .151.0052.203.0156.062 0 .193.0052.39.0157v4.5624c-.281-.0312-.531-.052-.75-.0624-.218-.0105-.395-.0157-.531-.0157zm11.703 9.75v3.3281l-2.109.0782c-2.104.0729-3.542-.2917-4.313-1.0938-.5-.5104-.75-1.2968-.75-2.3594v-10.4843h-2.374v-3.1719h2.374v-4.75h4.407v4.75h2.765v3.1719h-2.765v9c0 .6979.088 1.1354.265 1.3125.177.1666.719.25 1.625.25h.422c.157-.0104.308-.0209.453-.0313zm14.594-13.0781c1.333.8542 2.099 2.3229 2.297 4.4062h-4.453c-.063-.5729-.224-1.026-.484-1.3593-.49-.6042-1.323-.9063-2.5-.9063-.969 0-1.662.1511-2.079.4532-.406.302-.609.6562-.609 1.0624 0 .5105.219.8803.656 1.1094.438.2396 1.985.6511 4.641 1.2344 1.771.4167 3.099 1.0469 3.984 1.8906.875.8542 1.313 1.9219 1.313 3.2032 0 1.6874-.63 3.0677-1.891 4.1406-1.25 1.0625-3.187 1.5937-5.812 1.5937-2.677 0-4.657-.5625-5.938-1.6875-1.271-1.1354-1.906-2.5781-1.906-4.3281h4.515c.094.7917.297 1.3542.61 1.6875.552.5938 1.573.8906 3.062.8906.875 0 1.568-.1302 2.078-.3906.521-.2604.782-.651.782-1.1719 0-.5-.209-.8802-.625-1.1406-.417-.2604-1.964-.7083-4.641-1.3437-1.927-.4792-3.286-1.0782-4.078-1.7969-.792-.7084-1.188-1.7292-1.188-3.0625 0-1.5729.615-2.9219 1.844-4.0469 1.24-1.1354 2.979-1.7031 5.219-1.7031 2.125 0 3.859.4218 5.203 1.2656zm30.375 6.25v10h-4.547v-10.3594c0-.9166-.156-1.6562-.468-2.2187-.407-.7917-1.178-1.1875-2.313-1.1875-1.177 0-2.073.3958-2.687 1.1875-.605.7812-.907 1.901-.907 3.3593v9.2188h-4.437v-22.9531h4.437v8.1406c.646-.9896 1.391-1.6771 2.235-2.0625.854-.3958 1.75-.5938 2.687-.5938 1.052 0 2.005.1823 2.859.5469.865.3646 1.573.9219 2.126 1.6719.468.6354.755 1.2917.859 1.9688.104.6666.156 1.7604.156 3.2812zm18.75 5c-.114 1.0104-.641 2.0365-1.578 3.0781-1.458 1.6563-3.5 2.4844-6.125 2.4844-2.167 0-4.078-.6979-5.734-2.0937-1.657-1.3959-2.485-3.6667-2.485-6.8126 0-2.9479.745-5.2083 2.235-6.7812 1.5-1.5729 3.442-2.3594 5.828-2.3594 1.416 0 2.692.2656 3.828.7969 1.135.5313 2.073 1.3698 2.812 2.5156.667 1.0104 1.099 2.1823 1.297 3.5157.115.7812.162 1.9062.141 3.375h-11.656c.062 1.7083.599 2.9062 1.609 3.5937.615.4271 1.354.6406 2.219.6406.916 0 1.661-.2604 2.234-.7812.313-.2813.589-.6719.828-1.1719zm-4.406-5.2188c-.073-1.177-.432-2.0677-1.078-2.6718-.636-.6146-1.427-.9219-2.375-.9219-1.032 0-1.834.3229-2.406.9687-.563.6459-.917 1.5209-1.063 2.625zm16.203-2.7031c-1.792 0-2.995.5834-3.609 1.75-.344.6563-.516 1.6667-.516 3.0313v8.1406h-4.484v-17.0312h4.25v2.9687c.687-1.1354 1.286-1.9115 1.797-2.3281.833-.6979 1.916-1.0469 3.25-1.0469.083 0 .151.0052.203.0156.062 0 .192.0052.39.0157v4.5624c-.281-.0312-.531-.052-.75-.0624-.219-.0105-.396-.0157-.531-.0157zm18.484 7.9219c-.114 1.0104-.64 2.0365-1.578 3.0781-1.458 1.6563-3.5 2.4844-6.125 2.4844-2.166 0-4.078-.6979-5.734-2.0937-1.656-1.3959-2.485-3.6667-2.485-6.8126 0-2.9479.745-5.2083 2.235-6.7812 1.5-1.5729 3.443-2.3594 5.828-2.3594 1.417 0 2.693.2656 3.828.7969 1.136.5313 2.073 1.3698 2.813 2.5156.666 1.0104 1.099 2.1823 1.296 3.5157.115.7812.162 1.9062.141 3.375h-11.656c.062 1.7083.599 2.9062 1.609 3.5937.615.4271 1.354.6406 2.219.6406.917 0 1.661-.2604 2.234-.7812.313-.2813.589-.6719.829-1.1719zm-4.406-5.2188c-.073-1.177-.432-2.0677-1.078-2.6718-.635-.6146-1.427-.9219-2.375-.9219-1.031 0-1.833.3229-2.406.9687-.563.6459-.917 1.5209-1.063 2.625z" fill="#183b4e"/></svg>